<svg xmlns="http://www.w3.org/2000/svg" version="1.0" preserveAspectRatio="xMidYMid meet" viewBox="285.21 153.32 221.4 221.41">

<g transform="translate(0.000000,529.000000) scale(0.100000,-0.100000)" fill="orange" stroke="orange">
<path d="M3820 3749 c-586 -67 -1029 -629 -961 -1219 53 -450 363 -819 795 -944 583 -169 1200 171 1370 756 76 264 48 567 -75 810 -43 85 -140 215 -216 290 -242 237 -567 346 -913 307z m308 -64 c390 -68 700 -334 829 -710 72 -210 70 -444 -5 -665 -75 -220 -216 -402 -410 -531 -171 -113 -334 -166 -537 -176 -367 -17 -709 158 -923 474 -118 175 -181 407 -169 625 27 486 386 891 872 983 96 18 243 18 343 0z"/>
<path d="M3989 3343 c-5 -169 -3 -332 3 -350 6 -19 15 -23 48 -23 32 0 40 4 40 18 0 10 5 23 12 30 9 9 9 15 0 24 -7 7 -12 30 -12 53 0 31 8 50 35 84 53 66 44 112 -16 81 -21 -12 -26 -1 -7 18 9 9 9 15 0 24 -7 7 -12 19 -12 28 0 15 -57 50 -80 50 -6 0 -10 -17 -11 -37z m71 -15 c0 -4 -11 -8 -25 -8 -18 0 -25 5 -25 20 0 17 3 18 25 8 14 -6 25 -15 25 -20z m0 -103 c0 -31 -3 -35 -25 -35 -22 0 -25 4 -25 35 0 31 3 35 25 35 22 0 25 -4 25 -35z m0 -125 c0 -36 -2 -40 -25 -40 -22 0 -25 4 -25 40 0 36 3 40 25 40 23 0 25 -4 25 -40z m-7 -107 c-7 -2 -21 -2 -30 0 -10 3 -4 5 12 5 17 0 24 -2 18 -5z"/>
<path d="M3886 3252 c-43 -32 -69 -81 -55 -103 15 -24 10 -28 -26 -22 -28 5 -35 2 -35 -11 0 -23 18 -56 46 -85 13 -13 24 -32 24 -42 0 -16 8 -19 44 -19 37 0 44 3 48 23 5 25 0 278 -5 284 -2 1 -21 -10 -41 -25z m24 -37 c0 -20 -5 -25 -25 -25 -31 0 -32 14 -3 34 29 20 28 21 28 -9z m0 -115 c0 -36 -2 -40 -25 -40 -22 0 -25 4 -25 40 0 36 3 40 25 40 23 0 25 -4 25 -40z m-7 -107 c-7 -2 -21 -2 -30 0 -10 3 -4 5 12 5 17 0 24 -2 18 -5z"/>
<path d="M3390 2760 l0 -100 55 0 c82 0 120 45 76 89 -17 17 -18 20 -3 35 15 15 15 19 2 44 -14 24 -22 27 -73 30 l-57 3 0 -101z m94 74 c19 -7 21 -35 4 -52 -7 -7 -27 -12 -45 -12 -31 0 -33 2 -33 35 0 32 2 35 29 35 16 0 36 -3 45 -6z m17 -100 c21 -25 -1 -49 -50 -52 -41 -3 -41 -3 -41 32 0 35 1 36 39 36 23 0 44 -6 52 -16z"/>
<path d="M3627 2828 c-8 -18 -26 -61 -41 -95 -29 -70 -30 -73 -16 -73 6 0 16 11 22 25 10 22 17 25 63 25 46 0 53 -3 63 -25 11 -23 32 -35 32 -17 0 23 -81 187 -94 190 -9 2 -21 -10 -29 -30z m52 -51 l20 -47 -44 0 -44 0 21 50 c11 28 22 49 24 48 1 -2 12 -25 23 -51z"/>
<path d="M3790 2761 c0 -61 4 -101 10 -101 6 0 10 34 10 83 l1 82 36 -82 c19 -46 41 -83 48 -83 6 0 28 37 48 83 l36 82 1 -82 c0 -49 4 -83 10 -83 6 0 10 40 10 101 0 90 -2 100 -17 97 -11 -2 -31 -35 -53 -85 l-36 -82 -35 82 c-22 51 -41 83 -52 85 -15 3 -17 -7 -17 -97z"/>
<path d="M4060 2760 l0 -100 58 0 c44 0 63 5 75 18 21 23 22 56 2 72 -11 9 -13 16 -5 24 15 15 12 52 -6 70 -10 11 -34 16 -70 16 l-54 0 0 -100z m104 64 c9 -8 16 -17 16 -19 0 -15 -38 -35 -66 -35 -32 0 -34 2 -34 35 0 33 2 35 34 35 19 0 42 -7 50 -16z m10 -90 c9 -8 16 -17 16 -19 0 -16 -38 -35 -71 -35 -38 0 -39 1 -39 35 0 34 1 35 39 35 23 0 46 -7 55 -16z"/>
<path d="M4260 2760 c0 -60 4 -100 10 -100 6 0 10 40 10 100 0 60 -4 100 -10 100 -6 0 -10 -40 -10 -100z"/>
<path d="M4359 2831 c-40 -40 -41 -106 -3 -145 21 -20 36 -26 71 -26 62 0 103 40 103 100 0 33 -6 48 -29 71 -23 23 -38 29 -71 29 -33 0 -48 -6 -71 -29z m109 -7 c32 -22 43 -57 31 -94 -28 -78 -132 -63 -145 22 -11 66 59 111 114 72z"/>
<path d="M3392 2338 c3 -234 5 -267 22 -298 49 -93 108 -125 231 -125 123 0 182 32 231 125 17 31 20 66 24 298 l5 262 -37 0 -37 0 -3 -247 c-3 -228 -5 -251 -24 -288 -42 -79 -154 -108 -244 -62 -52 26 -78 59 -90 113 -5 21 -10 139 -10 262 l0 222 -36 0 -35 0 3 -262z"/>
<path d="M4102 2258 l3 -343 38 -3 37 -3 0 155 0 156 160 0 160 0 0 35 0 35 -160 0 -160 0 0 120 0 120 175 0 175 0 0 35 0 35 -215 0 -215 0 2 -342z"/>
</g>
</svg>